<svg width="149" height="30" viewBox="0 0 149 30" fill="none" xmlns="http://www.w3.org/2000/svg">
<mask id="mask0_1_469" style="mask-type:alpha" maskUnits="userSpaceOnUse" x="0" y="0" width="149" height="30">
<path d="M149 0.0114746H0V29.1116H149V0.0114746Z" fill="white"/>
</mask>
<g mask="url(#mask0_1_469)">
<path d="M40.2927 8.05088C40.2927 7.83018 40.3873 7.60948 40.5449 7.45188C40.7025 7.29418 40.9232 7.19968 41.1439 7.19968H48.8367C48.9628 7.19968 49.0889 7.13658 49.1835 7.07348C49.2781 6.97898 49.3096 6.85278 49.3096 6.72668V6.41148C49.3096 6.28538 49.2465 6.15918 49.1835 6.06468C49.0889 5.97008 48.9628 5.93848 48.8367 5.93848H39.9143C39.2838 5.93848 38.6848 6.19078 38.2434 6.63218C37.802 7.07348 37.5498 7.67258 37.5498 8.30308V12.7485C37.5498 13.3791 37.802 13.9781 38.2434 14.4195C38.6848 14.8609 39.2838 15.1131 39.9143 15.1131H46.0938C46.3145 15.1131 46.5352 15.2077 46.6928 15.3969C46.8504 15.5545 46.945 15.7752 46.945 15.9959V20.8512C46.945 21.0719 46.8504 21.2925 46.6928 21.4502C46.5352 21.6078 46.3145 21.7024 46.0938 21.7024H38.7478C38.6217 21.7024 38.4956 21.7655 38.401 21.8285C38.3064 21.9231 38.2749 22.0492 38.2749 22.1753V22.4906C38.2749 22.6167 38.338 22.7428 38.401 22.8374C38.4956 22.932 38.6217 22.9635 38.7478 22.9635H47.2918C47.6071 22.9635 47.8909 22.9005 48.2061 22.7743C48.4899 22.6482 48.7421 22.4906 48.9628 22.2699C49.1835 22.0492 49.3411 21.797 49.4672 21.5132C49.5934 21.2295 49.6564 20.9142 49.6564 20.5989V16.1851C49.6564 15.5545 49.4042 14.9555 48.9628 14.5141C48.5214 14.0727 47.9224 13.8205 47.2918 13.8205H41.1124C40.8917 13.8205 40.671 13.7259 40.5134 13.5683C40.3557 13.4106 40.2611 13.1899 40.2611 12.9692V8.05088H40.2927Z" fill="white"/>
<path d="M125.859 8.05088C125.859 7.83018 125.953 7.60948 126.111 7.45188C126.269 7.29418 126.489 7.19968 126.71 7.19968H134.403C134.529 7.19968 134.655 7.13658 134.749 7.07348C134.844 6.97898 134.876 6.85278 134.876 6.72668V6.41148C134.876 6.28538 134.813 6.15918 134.749 6.06468C134.655 5.97008 134.529 5.93848 134.403 5.93848H125.449C124.818 5.93848 124.219 6.19078 123.778 6.63218C123.336 7.07348 123.084 7.67258 123.084 8.30308V12.7485C123.084 13.3791 123.336 13.9781 123.778 14.4195C124.219 14.8609 124.818 15.1131 125.449 15.1131H131.628C131.849 15.1131 132.07 15.2077 132.227 15.3969C132.385 15.5545 132.479 15.7752 132.479 15.9959V20.8512C132.479 21.0719 132.385 21.2925 132.227 21.4502C132.07 21.6078 131.849 21.7024 131.628 21.7024H124.282C124.156 21.7024 124.03 21.7655 123.935 21.8285C123.841 21.9231 123.809 22.0492 123.809 22.1753V22.4906C123.809 22.6167 123.872 22.7428 123.935 22.8374C124.03 22.932 124.156 22.9635 124.282 22.9635H132.858C133.173 22.9635 133.457 22.9005 133.772 22.7743C134.056 22.6482 134.308 22.4906 134.529 22.2699C134.749 22.0492 134.907 21.797 135.033 21.5132C135.159 21.2295 135.222 20.9142 135.222 20.5989V16.1851C135.222 15.5545 134.97 14.9555 134.529 14.5141C134.087 14.0727 133.488 13.8205 132.858 13.8205H126.678C126.458 13.8205 126.237 13.7259 126.079 13.5683C125.922 13.4106 125.827 13.1899 125.827 12.9692V8.05088H125.859Z" fill="white"/>
<path d="M60.5018 21.6395H56.6554C56.4347 21.6395 56.214 21.5449 56.0564 21.3557C55.8987 21.1981 55.8042 20.9774 55.8042 20.7567V6.38013C55.8042 6.25403 55.7411 6.12783 55.678 6.03333C55.5835 5.93873 55.4574 5.90723 55.3312 5.90723H53.5657C53.4396 5.90723 53.3135 5.97023 53.2189 6.03333C53.1243 6.12783 53.0928 6.25403 53.0928 6.38013V20.536C53.0928 21.1666 53.345 21.7656 53.7864 22.207C54.2278 22.6484 54.8268 22.9006 55.4574 22.9006H60.5018C60.6279 22.9006 60.754 22.8375 60.8486 22.7745C60.9432 22.6799 60.9747 22.5538 60.9747 22.4277V22.1124C60.9747 22.0493 60.9747 21.9863 60.9432 21.9232C60.9116 21.8602 60.8801 21.7971 60.8486 21.7656C60.8171 21.7341 60.754 21.671 60.691 21.671C60.6279 21.671 60.5648 21.6395 60.5018 21.6395Z" fill="white"/>
<path d="M88.751 21.6395H90.0751C90.2958 21.6395 90.5165 21.5449 90.6742 21.3557C90.8318 21.1981 90.9264 20.9774 90.9264 20.7567V6.38013C90.9264 6.25403 90.9894 6.12783 91.0525 6.03333C91.1471 5.93873 91.2732 5.90723 91.3993 5.90723H93.1964C93.3225 5.90723 93.4486 5.97023 93.5432 6.03333C93.6378 6.12783 93.6693 6.25403 93.6693 6.38013V20.536C93.6693 21.1666 93.4171 21.7656 92.9757 22.207C92.5343 22.6484 91.9353 22.9006 91.3047 22.9006H88.7825C88.6564 22.9006 88.5303 22.8375 88.4357 22.7745C88.3411 22.6799 88.3096 22.5538 88.3096 22.4277V22.1124C88.3096 22.0493 88.3096 21.9863 88.3411 21.9232C88.3726 21.8602 88.4042 21.7971 88.4357 21.7656C88.4672 21.7341 88.5303 21.671 88.5933 21.671C88.6249 21.671 88.6879 21.6395 88.751 21.6395Z" fill="white"/>
<path d="M83.138 21.6395H81.8139C81.5932 21.6395 81.3725 21.5449 81.2148 21.3557C81.0572 21.1981 80.9626 20.9774 80.9626 20.7567V6.38013C80.9626 6.25403 80.8996 6.12783 80.8365 6.03333C80.7419 5.93873 80.6158 5.90723 80.4897 5.90723H78.6926C78.5665 5.90723 78.4404 5.97023 78.3458 6.03333C78.2512 6.12783 78.2197 6.25403 78.2197 6.38013V20.536C78.2197 21.1666 78.4719 21.7656 78.9133 22.207C79.3547 22.6484 79.9537 22.9006 80.5843 22.9006H83.1065C83.2326 22.9006 83.3587 22.8375 83.4533 22.7745C83.5479 22.6799 83.5794 22.5538 83.5794 22.4277V22.1124C83.5794 22.0493 83.5794 21.9863 83.5479 21.9232C83.5164 21.8602 83.4848 21.7971 83.4533 21.7656C83.4218 21.7341 83.3587 21.671 83.2957 21.671C83.2641 21.671 83.2011 21.6395 83.138 21.6395Z" fill="white"/>
<path d="M70.4013 21.6395H66.681C66.4603 21.6395 66.2396 21.5449 66.082 21.3557C65.9244 21.1981 65.8298 20.9774 65.8298 20.7567V6.38013C65.8298 6.25403 65.7667 6.12783 65.7037 6.03333C65.6406 5.93873 65.483 5.90723 65.3568 5.90723H63.5598C63.4337 5.90723 63.3076 5.97023 63.213 6.03333C63.1184 6.09633 63.0869 6.25403 63.0869 6.38013V20.536C63.0869 21.1666 63.3391 21.7656 63.7805 22.207C64.2219 22.6484 64.8209 22.9006 65.4514 22.9006H70.3698C70.4959 22.9006 70.622 22.8375 70.7166 22.7745C70.8111 22.6799 70.8427 22.5538 70.8427 22.4277V22.1124C70.8427 22.0493 70.8427 21.9863 70.8111 21.9232C70.7796 21.8602 70.7481 21.7971 70.7166 21.7656C70.685 21.7341 70.622 21.671 70.5589 21.671C70.5274 21.671 70.4643 21.6395 70.4013 21.6395Z" fill="white"/>
<path d="M118.954 5.93848H117.157C117.031 5.93848 116.905 6.00158 116.81 6.06468C116.716 6.15918 116.684 6.28538 116.684 6.41148V22.4275C116.684 22.5537 116.747 22.6798 116.81 22.7743C116.905 22.8689 117.031 22.9005 117.157 22.9005H118.954C119.08 22.9005 119.206 22.8374 119.301 22.7743C119.395 22.6798 119.427 22.5537 119.427 22.4275V6.41148C119.427 6.34838 119.427 6.28528 119.395 6.22228C119.364 6.15918 119.332 6.09618 119.301 6.06468C119.269 6.03308 119.206 5.97008 119.143 5.97008C119.08 5.93848 119.017 5.93848 118.954 5.93848Z" fill="white"/>
<path d="M86.8589 5.93848H85.0618C84.9357 5.93848 84.8096 6.00158 84.715 6.06468C84.6204 6.15918 84.5889 6.28538 84.5889 6.41148V22.4275C84.5889 22.5537 84.6519 22.6798 84.715 22.7743C84.8096 22.8689 84.9357 22.9005 85.0618 22.9005H86.8589C86.985 22.9005 87.1111 22.8374 87.2057 22.7743C87.3003 22.6798 87.3318 22.5537 87.3318 22.4275V6.41148C87.3318 6.34838 87.3318 6.28528 87.3003 6.22228C87.2687 6.15918 87.2372 6.09618 87.2057 6.06468C87.1741 6.03308 87.1111 5.97008 87.048 5.97008C86.985 5.97008 86.9219 5.93848 86.8589 5.93848Z" fill="white"/>
<path d="M102.339 7.16833H101.015C100.794 7.16833 100.573 7.26283 100.416 7.42053C100.258 7.57813 100.164 7.79883 100.164 8.01953V22.4277C100.164 22.5538 100.101 22.6799 100.037 22.7745C99.9431 22.8691 99.817 22.9006 99.6908 22.9006H97.8938C97.7677 22.9006 97.6415 22.8375 97.547 22.7745C97.4524 22.6799 97.4209 22.5538 97.4209 22.4277V8.27172C97.4209 7.64122 97.6731 7.04223 98.1145 6.60083C98.5558 6.15943 99.1549 5.90723 99.7854 5.90723H102.307C102.434 5.90723 102.56 5.97023 102.654 6.03333C102.749 6.12783 102.78 6.25403 102.78 6.38013V6.69533C102.78 6.82153 102.749 6.94762 102.654 7.04222C102.591 7.13672 102.465 7.16833 102.339 7.16833Z" fill="white"/>
<path d="M107.951 7.16833H109.275C109.496 7.16833 109.716 7.26283 109.874 7.42053C110.032 7.57813 110.126 7.79883 110.126 8.01953V22.4277C110.126 22.5538 110.189 22.6799 110.252 22.7745C110.347 22.8691 110.473 22.9006 110.599 22.9006H112.365C112.491 22.9006 112.617 22.8375 112.712 22.7745C112.806 22.6799 112.838 22.5538 112.838 22.4277V8.27172C112.838 7.64122 112.586 7.04223 112.144 6.60083C111.703 6.15943 111.104 5.90723 110.473 5.90723H107.951C107.825 5.90723 107.699 5.97023 107.604 6.03333C107.51 6.12783 107.478 6.25403 107.478 6.38013V6.69533C107.478 6.75843 107.478 6.82153 107.51 6.88453C107.541 6.94763 107.573 7.01062 107.604 7.04222C107.636 7.07372 107.699 7.13673 107.762 7.13673C107.825 7.16833 107.888 7.16833 107.951 7.16833Z" fill="white"/>
<path d="M67.1855 7.16833H70.9057C71.1264 7.16833 71.3471 7.26283 71.5048 7.42053C71.6624 7.57813 71.757 7.79883 71.757 8.01953V22.4277C71.757 22.5538 71.8201 22.6799 71.8831 22.7745C71.9777 22.8691 72.1038 22.9006 72.2299 22.9006H74.027C74.1531 22.9006 74.2792 22.8375 74.3738 22.7745C74.4684 22.6799 74.4999 22.5538 74.4999 22.4277V8.27172C74.4999 7.64122 74.2477 7.04223 73.8063 6.60083C73.3649 6.15943 72.7659 5.90723 72.1353 5.90723H67.217C67.0909 5.90723 66.9648 5.97023 66.8702 6.03333C66.7756 6.12783 66.7441 6.25403 66.7441 6.38013V6.69533C66.7441 6.82153 66.7756 6.94763 66.8702 7.01063C66.9333 7.13673 67.0594 7.16833 67.1855 7.16833Z" fill="white"/>
<path d="M137.839 7.16833H140.645C140.866 7.16833 141.086 7.26283 141.244 7.42053C141.402 7.57813 141.496 7.79883 141.496 8.01953V22.4277C141.496 22.5538 141.559 22.6799 141.622 22.7745C141.717 22.8691 141.843 22.9006 141.969 22.9006H143.766C143.892 22.9006 144.019 22.8375 144.113 22.7745C144.208 22.6799 144.239 22.5538 144.239 22.4277V8.27172C144.239 7.64122 143.987 7.04223 143.546 6.60083C143.104 6.15943 142.505 5.90723 141.875 5.90723H137.839C137.713 5.90723 137.587 5.97023 137.492 6.03333C137.398 6.12783 137.366 6.25403 137.366 6.38013V6.69533C137.366 6.82153 137.398 6.94763 137.492 7.01063C137.618 7.10523 137.713 7.16833 137.839 7.16833Z" fill="white"/>
<path d="M104.23 22.9321H106.028C106.154 22.9321 106.28 22.869 106.374 22.806C106.469 22.7114 106.5 22.5853 106.5 22.4592V6.44312C106.5 6.31702 106.437 6.19092 106.374 6.09632C106.28 6.00172 106.154 5.97021 106.028 5.97021H104.23C104.104 5.97021 103.978 6.03322 103.884 6.09632C103.789 6.19092 103.758 6.31702 103.758 6.44312V22.4592C103.758 22.5222 103.758 22.5853 103.789 22.6483C103.821 22.7114 103.852 22.7429 103.884 22.806C103.915 22.8375 103.978 22.9005 104.041 22.9005C104.136 22.9005 104.199 22.9321 104.23 22.9321Z" fill="white"/>
<path d="M148.527 5.90723H146.73C146.604 5.90723 146.478 5.97023 146.383 6.03333C146.289 6.12783 146.257 6.25403 146.257 6.38013V8.01953C146.257 8.14563 146.32 8.27173 146.383 8.36633C146.478 8.46093 146.604 8.49242 146.73 8.49242H148.559C148.685 8.49242 148.811 8.42943 148.905 8.36633C149 8.27173 149.032 8.14563 149.032 8.01953V6.38013C149.032 6.31703 149.032 6.25403 149 6.19093C148.968 6.12783 148.937 6.06483 148.874 6.03333C148.842 6.00173 148.779 5.97023 148.716 5.93873C148.653 5.90723 148.59 5.90723 148.527 5.90723Z" fill="white"/>
<path d="M18.6015 22.4592C17.0567 24.2878 15.2281 25.8327 13.1788 27.0307C13.1788 27.0307 1.8603 21.1351 1.8603 6.06477C7.97668 5.78107 12.296 3.03807 13.1788 2.15537C13.7147 2.69127 15.4488 3.85787 18.0971 4.80367V3.06967C16.2685 2.43907 14.5975 1.39867 13.2103 0.0429688C12.3275 0.925769 8.92251 4.20467 0.0947516 4.64607C-0.788024 22.4277 13.2103 29.1431 13.2103 29.1431C16.2369 27.5037 18.8853 25.2337 20.9661 22.4908H18.6015V22.4592Z" fill="white"/>
<path d="M21.9746 12.8118H17.876V16.5321H21.9746V12.8118Z" fill="white"/>
<path d="M17.5926 16.9102H16.3945V17.9506H17.5926V16.9102Z" fill="white"/>
<path d="M20.2727 18.7388H18.4756V20.3783H20.2727V18.7388Z" fill="white"/>
<path d="M24.6858 18.991H22.0059V21.3556H24.6858V18.991Z" fill="white"/>
<path d="M31.5595 11.1724H28.3438V14.0729H31.5595V11.1724Z" fill="white"/>
<path d="M31.2757 5.68628H29.7939V7.01048H31.2757V5.68628Z" fill="white"/>
<path d="M28.3754 6.5061H26.8936V7.8302H28.3754V6.5061Z" fill="white"/>
<path d="M28.3751 14.3564H26.4834V16.0904H28.3751V14.3564Z" fill="white"/>
<path d="M27.0197 17.4463H25.002V19.2434H27.0197V17.4463Z" fill="white"/>
<path d="M25.3488 3.47949H23.1104V5.46579H25.3488V3.47949Z" fill="white"/>
<path d="M21.0605 1.71387H19.0742V3.47947H21.0605V1.71387Z" fill="white"/>
<path d="M18.8535 5.18213H16.2998V7.45203H18.8535V5.18213Z" fill="white"/>
<path d="M16.489 6.34863H16.2998V8.61863H16.489V6.34863Z" fill="white"/>
<path d="M20.3036 3.38477H20.083V5.65477H20.3036V3.38477Z" fill="white"/>
<path d="M24.6549 5.18213H24.4658V10.195H24.6549V5.18213Z" fill="white"/>
<path d="M30.3922 6.72705H30.2031V11.74H30.3922V6.72705Z" fill="white"/>
<path d="M30.2984 6.82153H27.9023V7.04223H30.2984V6.82153Z" fill="white"/>
<path d="M28.4697 11.8345H26.042V12.0237H28.4697V11.8345Z" fill="white"/>
<path d="M26.83 14.5142H24.4023V14.7034H26.83V14.5142Z" fill="white"/>
<path d="M23.7723 15.2393H21.3447V15.4285H23.7723V15.2393Z" fill="white"/>
<path d="M25.9156 18.991H23.5195V19.2117H25.9156V18.991Z" fill="white"/>
<path d="M28.0915 14.7981L27.9023 14.672L28.5644 13.6631L28.722 13.7892L28.0915 14.7981Z" fill="white"/>
<path d="M17.4027 17.2887L17.2451 17.1311L18.0964 16.2798L18.254 16.4374L17.4027 17.2887Z" fill="white"/>
<path d="M23.4567 10.5417H21.0605V10.7309H23.4567V10.5417Z" fill="white"/>
<path d="M19.5156 8.46094H17.0879V8.65014H19.5156V8.46094Z" fill="white"/>
<path d="M21.1553 6.5376H20.9346V11.5506H21.1553V6.5376Z" fill="white"/>
<path d="M20.2725 14.9871H20.0518V20H20.2725V14.9871Z" fill="white"/>
<path d="M27.0195 14.4827H26.7988V18.266H27.0195V14.4827Z" fill="white"/>
<path d="M23.1727 5.46558H19.4209V8.87058H23.1727V5.46558Z" fill="white"/>
<path d="M21.4706 11.2983H20.4932V12.1811H21.4706V11.2983Z" fill="white"/>
<path d="M26.1363 9.65894H23.2988V12.1496H26.1363V9.65894Z" fill="white"/>
<path d="M17.3091 8.46094H14.377V11.1407H17.3091V8.46094Z" fill="white"/>
<path d="M24.9075 14.0098H23.3311V15.4601H24.9075V14.0098Z" fill="white"/>
<g opacity="0.8">
<path opacity="0.8" d="M13.1788 27.0307V2.15527C12.296 3.03807 7.94527 5.78097 1.86042 6.06477C1.8289 21.135 13.1788 27.0307 13.1788 27.0307Z" fill="white"/>
</g>
</g>
</svg>
